<mxfile host="app.diagrams.net" agent="Mozilla/5.0 (Windows NT 10.0; Win64; x64) AppleWebKit/537.36 (KHTML, like Gecko) Chrome/141.0.0.0 Safari/537.36 Edg/141.0.0.0" version="28.2.5">
  <diagram name="Página-1" id="v160OpamZ3wKaJMeic_G">
    <mxGraphModel dx="1418" dy="820" grid="1" gridSize="10" guides="1" tooltips="1" connect="1" arrows="1" fold="1" page="1" pageScale="1" pageWidth="827" pageHeight="1169" math="0" shadow="0">
      <root>
        <mxCell id="0" />
        <mxCell id="1" parent="0" />
        <mxCell id="mN2e4ELSClWRt6xC7fYK-51" value="Fim" style="ellipse;whiteSpace=wrap;html=1;" vertex="1" parent="1">
          <mxGeometry x="260" y="600" width="120" height="80" as="geometry" />
        </mxCell>
        <mxCell id="mN2e4ELSClWRt6xC7fYK-54" value="" style="edgeStyle=orthogonalEdgeStyle;rounded=0;orthogonalLoop=1;jettySize=auto;html=1;" edge="1" parent="1" source="mN2e4ELSClWRt6xC7fYK-52" target="mN2e4ELSClWRt6xC7fYK-53">
          <mxGeometry relative="1" as="geometry" />
        </mxCell>
        <mxCell id="mN2e4ELSClWRt6xC7fYK-52" value="Ínicio" style="ellipse;whiteSpace=wrap;html=1;" vertex="1" parent="1">
          <mxGeometry x="260" y="60" width="120" height="80" as="geometry" />
        </mxCell>
        <mxCell id="mN2e4ELSClWRt6xC7fYK-59" value="" style="edgeStyle=orthogonalEdgeStyle;rounded=0;orthogonalLoop=1;jettySize=auto;html=1;" edge="1" parent="1" source="mN2e4ELSClWRt6xC7fYK-53" target="mN2e4ELSClWRt6xC7fYK-55">
          <mxGeometry relative="1" as="geometry" />
        </mxCell>
        <mxCell id="mN2e4ELSClWRt6xC7fYK-53" value="Cont = 0&lt;div&gt;Mult = 0&lt;/div&gt;" style="rounded=0;whiteSpace=wrap;html=1;" vertex="1" parent="1">
          <mxGeometry x="260" y="180" width="120" height="60" as="geometry" />
        </mxCell>
        <mxCell id="mN2e4ELSClWRt6xC7fYK-58" value="" style="edgeStyle=orthogonalEdgeStyle;rounded=0;orthogonalLoop=1;jettySize=auto;html=1;" edge="1" parent="1" source="mN2e4ELSClWRt6xC7fYK-55" target="mN2e4ELSClWRt6xC7fYK-56">
          <mxGeometry relative="1" as="geometry" />
        </mxCell>
        <mxCell id="mN2e4ELSClWRt6xC7fYK-55" value="Ler N" style="shape=parallelogram;perimeter=parallelogramPerimeter;whiteSpace=wrap;html=1;fixedSize=1;" vertex="1" parent="1">
          <mxGeometry x="260" y="270" width="120" height="60" as="geometry" />
        </mxCell>
        <mxCell id="mN2e4ELSClWRt6xC7fYK-61" value="" style="edgeStyle=orthogonalEdgeStyle;rounded=0;orthogonalLoop=1;jettySize=auto;html=1;" edge="1" parent="1" source="mN2e4ELSClWRt6xC7fYK-56" target="mN2e4ELSClWRt6xC7fYK-60">
          <mxGeometry relative="1" as="geometry" />
        </mxCell>
        <mxCell id="mN2e4ELSClWRt6xC7fYK-56" value="Cont = Cont + 1" style="rounded=0;whiteSpace=wrap;html=1;" vertex="1" parent="1">
          <mxGeometry x="260" y="390" width="120" height="60" as="geometry" />
        </mxCell>
        <mxCell id="mN2e4ELSClWRt6xC7fYK-64" value="" style="edgeStyle=orthogonalEdgeStyle;rounded=0;orthogonalLoop=1;jettySize=auto;html=1;" edge="1" parent="1" source="mN2e4ELSClWRt6xC7fYK-60" target="mN2e4ELSClWRt6xC7fYK-63">
          <mxGeometry relative="1" as="geometry" />
        </mxCell>
        <mxCell id="mN2e4ELSClWRt6xC7fYK-60" value="Escrever N &quot;x&quot; Cont &quot;=&quot; N*Cont" style="shape=parallelogram;perimeter=parallelogramPerimeter;whiteSpace=wrap;html=1;fixedSize=1;" vertex="1" parent="1">
          <mxGeometry x="210" y="480" width="220" height="60" as="geometry" />
        </mxCell>
        <mxCell id="mN2e4ELSClWRt6xC7fYK-65" style="edgeStyle=orthogonalEdgeStyle;rounded=0;orthogonalLoop=1;jettySize=auto;html=1;entryX=1;entryY=0.5;entryDx=0;entryDy=0;" edge="1" parent="1" source="mN2e4ELSClWRt6xC7fYK-63" target="mN2e4ELSClWRt6xC7fYK-56">
          <mxGeometry relative="1" as="geometry">
            <Array as="points">
              <mxPoint x="530" y="420" />
            </Array>
          </mxGeometry>
        </mxCell>
        <mxCell id="mN2e4ELSClWRt6xC7fYK-66" value="Não" style="edgeLabel;html=1;align=center;verticalAlign=middle;resizable=0;points=[];" vertex="1" connectable="0" parent="mN2e4ELSClWRt6xC7fYK-65">
          <mxGeometry x="-0.5238" y="1" relative="1" as="geometry">
            <mxPoint as="offset" />
          </mxGeometry>
        </mxCell>
        <mxCell id="mN2e4ELSClWRt6xC7fYK-67" style="edgeStyle=orthogonalEdgeStyle;rounded=0;orthogonalLoop=1;jettySize=auto;html=1;entryX=1;entryY=0.5;entryDx=0;entryDy=0;" edge="1" parent="1" source="mN2e4ELSClWRt6xC7fYK-63" target="mN2e4ELSClWRt6xC7fYK-51">
          <mxGeometry relative="1" as="geometry">
            <Array as="points">
              <mxPoint x="540" y="640" />
            </Array>
          </mxGeometry>
        </mxCell>
        <mxCell id="mN2e4ELSClWRt6xC7fYK-68" value="Sim" style="edgeLabel;html=1;align=center;verticalAlign=middle;resizable=0;points=[];" vertex="1" connectable="0" parent="mN2e4ELSClWRt6xC7fYK-67">
          <mxGeometry x="0.376" y="-3" relative="1" as="geometry">
            <mxPoint as="offset" />
          </mxGeometry>
        </mxCell>
        <mxCell id="mN2e4ELSClWRt6xC7fYK-63" value="Cont == 10" style="rhombus;whiteSpace=wrap;html=1;" vertex="1" parent="1">
          <mxGeometry x="500" y="470" width="80" height="80" as="geometry" />
        </mxCell>
      </root>
    </mxGraphModel>
  </diagram>
</mxfile>
